<?xml version="1.0" standalone="no"?>
<!DOCTYPE svg PUBLIC "-//W3C//DTD SVG 20010904//EN"
 "http://www.w3.org/TR/2001/REC-SVG-20010904/DTD/svg10.dtd">
<svg version="1.0" xmlns="http://www.w3.org/2000/svg"
 width="3508.000000pt" height="3508.000000pt" viewBox="0 0 3508.000000 3508.000000"
 preserveAspectRatio="xMidYMid meet">
<metadata>
Created by potrace 1.16, written by Peter Selinger 2001-2019
</metadata>
<g transform="translate(0.000000,3508.000000) scale(0.100000,-0.100000)"
fill="#000000" stroke="none">
<path d="M6475 22446 c-60 -17 -128 -84 -144 -142 -14 -50 -14 -198 0 -249 7
-26 28 -56 59 -86 50 -49 105 -69 190 -69 l40 0 0 -1538 c0 -1698 4 -1596 -63
-1684 -43 -56 -122 -103 -208 -122 -98 -23 -1002 -23 -1097 -1 -184 43 -310
176 -353 370 -7 33 -13 114 -13 180 1 194 51 360 168 559 36 60 68 126 71 147
19 109 -44 195 -207 282 -46 25 -61 28 -111 24 -82 -7 -126 -40 -191 -140
-165 -254 -266 -556 -282 -842 -32 -601 298 -1041 850 -1130 134 -22 1115 -22
1242 0 318 54 538 204 653 446 68 141 83 216 89 437 2 105 5 192 6 192 1 0 45
-11 99 -25 138 -35 356 -48 698 -43 266 5 290 7 381 31 110 29 244 91 303 141
l39 33 66 -50 c78 -60 178 -108 280 -133 72 -18 159 -19 2435 -19 l2360 0 99
28 c99 27 236 91 286 134 16 13 31 23 35 23 4 0 39 -27 78 -59 148 -122 332
-188 557 -198 275 -13 502 56 678 204 l52 45 63 -51 c237 -195 624 -256 952
-150 314 101 515 351 580 723 12 73 15 189 15 641 l0 552 -23 44 c-13 24 -43
58 -66 74 -41 29 -48 30 -159 33 -68 2 -132 -1 -154 -7 -49 -15 -94 -54 -121
-105 -22 -40 -22 -48 -27 -596 l-6 -555 -24 -65 c-33 -86 -122 -179 -195 -203
-72 -24 -180 -35 -253 -27 -77 10 -180 58 -218 103 -41 48 -82 144 -93 217 -7
38 -11 269 -11 565 0 318 -4 514 -11 538 -13 49 -59 100 -113 126 -34 17 -62
21 -142 21 -120 0 -163 -11 -211 -53 -74 -65 -73 -51 -73 -617 0 -517 -4 -587
-41 -684 -43 -117 -155 -198 -297 -214 -191 -22 -338 41 -406 176 -52 102 -56
158 -56 715 l0 515 -28 53 c-22 43 -38 59 -81 81 -49 26 -62 28 -162 28 -119
0 -153 -9 -207 -55 -70 -59 -66 -29 -72 -660 -6 -645 -5 -630 -86 -711 -31
-32 -59 -48 -109 -63 -67 -21 -70 -21 -2319 -21 -2416 0 -2307 -2 -2390 49
-42 26 -91 97 -113 166 -15 43 -18 122 -22 576 l-6 526 -30 48 c-22 36 -45 57
-84 77 -48 25 -63 28 -157 28 -115 0 -159 -12 -207 -58 -64 -61 -61 -34 -67
-642 -5 -489 -8 -560 -23 -598 -27 -71 -54 -99 -125 -134 l-66 -33 -222 -3
c-276 -4 -481 10 -556 38 -102 38 -169 115 -205 235 -16 55 -18 152 -23 1266
l-5 1206 -30 48 c-21 35 -45 56 -80 74 -49 26 -54 26 -290 28 -179 2 -253 -1
-290 -11z"/>
<path d="M29559 21658 c-9 -25 -7 -73 2 -85 11 -12 10 -14 -2 -13 -24 4 -39 0
-39 -9 0 -6 12 -6 32 0 41 11 40 11 36 -3 -3 -7 -18 -12 -34 -13 -29 0 -31 -5
-20 -35 5 -11 0 -16 -18 -18 -22 -1 -23 1 -16 31 10 43 29 85 29 68 1 -8 3
-12 6 -9 4 3 3 17 0 31 -5 19 -12 24 -27 22 -23 -5 -37 -15 -21 -15 12 0 2
-57 -13 -81 -5 -8 -7 -22 -6 -32 2 -10 -2 -16 -10 -15 -9 2 -14 -11 -16 -39
-3 -43 -3 -43 -43 -43 -39 0 -39 0 -39 -40 l0 -40 -40 0 -40 0 -2 -55 c-3 -96
-5 -115 -13 -123 -4 -4 -4 27 -1 68 5 58 4 71 -5 57 -7 -12 -10 -48 -7 -93 2
-41 1 -75 -2 -76 -4 -2 -13 -27 -21 -57 l-14 -53 -167 1 c-111 1 -168 -2 -168
-9 0 -6 33 -11 83 -12 70 -1 76 -2 37 -8 l-45 -7 45 -4 c25 -2 -29 -6 -120 -9
l-165 -6 163 -2 c89 -1 162 -6 162 -10 0 -5 -18 -8 -40 -7 -40 2 -40 2 -40
-35 0 -40 -9 -48 -52 -45 -26 2 -28 -1 -28 -37 0 -38 0 -38 -40 -38 l-40 0 0
-40 0 -40 -40 0 c-22 0 -40 -4 -40 -10 0 -5 -18 -10 -40 -10 -22 0 -40 -4 -40
-10 0 -5 18 -10 40 -10 29 0 40 -4 40 -15 0 -8 -8 -16 -17 -16 -10 -1 -101 -5
-203 -9 -179 -6 -175 -7 122 -8 210 -1 313 -4 325 -12 13 -9 14 -10 2 -7 -10
3 -58 -35 -135 -110 -65 -63 -113 -112 -106 -108 6 3 12 4 12 0 0 -3 -11 -10
-25 -15 -14 -5 -29 -20 -34 -32 -5 -13 -21 -36 -35 -52 -24 -25 -25 -29 -11
-40 15 -10 14 -12 -3 -12 -23 0 -24 32 -2 46 8 5 11 10 6 10 -15 0 -406 -382
-400 -391 3 -5 1 -8 -4 -7 -8 2 -199 -179 -538 -510 -18 -17 -17 -19 1 -19 8
0 15 6 15 12 0 7 7 18 15 25 9 8 15 9 15 2 0 -6 -5 -14 -11 -17 -6 -4 -8 -14
-5 -22 5 -11 -1 -13 -24 -9 -28 4 -43 -7 -174 -137 -79 -78 -192 -188 -250
-244 -59 -57 -99 -100 -89 -97 14 4 14 3 -2 -6 -22 -14 -45 -40 -45 -52 0 -13
50 -9 55 5 2 6 6 23 7 37 4 33 16 50 34 50 20 0 18 -18 -3 -23 -15 -4 -14 -5
3 -6 11 0 25 4 32 11 6 6 15 9 18 5 4 -4 -7 -13 -25 -20 -17 -7 -28 -16 -25
-20 4 -3 3 -19 -1 -34 l-8 -28 -7 30 c-7 29 -8 29 -9 4 -1 -23 -7 -27 -42 -33
-30 -5 -39 -10 -35 -21 3 -8 1 -17 -4 -20 -6 -4 -10 4 -10 17 -1 23 -1 23 -21
-5 -11 -15 -25 -25 -29 -22 -5 3 2 17 15 31 14 15 29 23 36 18 8 -5 9 -3 4 6
-5 9 -4 11 3 6 8 -5 10 -1 5 9 -4 13 -34 -11 -131 -107 -186 -184 -279 -308
-231 -308 6 0 8 10 5 23 l-6 22 11 -22 c7 -13 15 -23 19 -23 12 0 20 28 13 46
-5 13 -1 15 18 9 19 -5 21 -4 9 5 -11 9 -12 13 -2 17 6 2 12 9 12 14 0 6 -8 5
-20 -1 -14 -8 -20 -8 -20 0 0 6 7 13 15 16 8 3 17 16 21 27 7 20 8 20 16 -8 4
-16 6 -36 3 -42 -2 -7 0 -13 5 -13 6 0 10 5 10 12 0 6 3 8 8 4 4 -4 7 -28 7
-52 0 -37 -3 -44 -20 -45 -11 -1 -33 -2 -48 -3 -16 -1 -30 1 -33 6 -10 15 -33
-5 -30 -25 3 -17 10 -22 30 -20 20 1 26 -3 26 -18 0 -16 -7 -19 -39 -19 -47 0
-62 26 -37 65 11 17 13 26 4 31 -6 4 -8 3 -5 -3 4 -6 -2 -18 -13 -28 -13 -12
-17 -23 -11 -34 14 -25 21 -151 9 -151 -6 0 -8 11 -6 24 4 18 1 23 -10 19 -11
-5 -13 -1 -8 15 3 12 9 31 12 42 3 11 1 27 -4 36 -7 12 -15 0 -35 -54 -27 -73
-54 -172 -56 -207 0 -11 -4 -48 -9 -82 -7 -56 -4 -127 12 -252 3 -23 19 -83
36 -133 53 -155 121 -261 243 -382 284 -279 689 -359 1055 -207 149 62 228
125 537 430 159 157 463 457 675 666 211 209 574 567 805 796 231 229 439 434
461 455 114 107 201 253 246 409 31 106 33 350 4 460 -27 105 -80 225 -140
323 -185 297 -494 472 -835 472 l-68 0 9 48 c15 68 14 318 -1 372 -7 25 -14
56 -15 70 -6 55 -18 90 -31 90 -13 0 -25 22 -25 43 1 7 7 1 15 -13 8 -14 14
-19 14 -10 0 8 -6 24 -14 34 -8 10 -12 23 -9 27 3 5 3 9 0 9 -3 0 -6 -1 -7 -2z
m314 -1089 c214 -72 383 -286 417 -530 14 -98 -2 -197 -44 -284 -32 -64 -66
-101 -378 -410 -1420 -1406 -1920 -1899 -1954 -1926 -51 -41 -143 -84 -224
-105 -86 -22 -230 -15 -317 16 -183 64 -335 229 -378 411 -19 82 -19 209 0
283 8 32 12 62 9 68 -4 7 -2 8 4 4 7 -4 12 -2 12 3 0 6 0 13 0 16 0 3 16 29
35 59 22 34 33 62 29 73 -4 12 -3 14 3 6 7 -9 25 3 66 45 31 31 57 62 57 67 0
6 4 10 9 10 9 0 221 203 221 212 0 2 -6 1 -12 -3 -8 -4 -10 -3 -5 2 5 5 13 9
17 9 19 0 180 157 174 168 -4 7 -3 9 1 4 12 -10 66 43 58 57 -3 6 -2 8 2 3 11
-9 56 33 49 45 -3 5 -1 7 5 6 11 -3 336 308 1095 1052 421 412 561 555 596
607 l35 53 178 0 c154 0 186 -3 240 -21z"/>
<path d="M18385 21019 c-43 -12 -99 -62 -121 -106 -18 -36 -19 -86 -24 -1078
-6 -1147 -2 -1081 -69 -1186 -22 -35 -44 -54 -88 -75 -56 -28 -63 -29 -203
-29 -166 1 -215 14 -309 84 -82 61 -177 72 -245 28 -37 -25 -134 -141 -151
-180 -34 -82 -13 -178 56 -248 101 -104 269 -190 438 -224 118 -24 401 -17
516 14 245 64 430 225 524 458 33 81 58 180 71 283 13 107 13 2074 -1 2123
-14 52 -84 122 -134 136 -47 13 -217 13 -260 0z"/>
<path d="M8175 18686 c-5 -3 -22 -7 -37 -10 -34 -8 -94 -59 -114 -97 -22 -43
-20 -398 2 -442 46 -90 87 -107 259 -107 154 0 184 8 232 63 41 47 53 107 53
270 -1 199 -20 256 -103 299 -35 19 -61 23 -162 25 -66 1 -124 1 -130 -1z"/>
<path d="M8904 18680 c-51 -12 -98 -46 -122 -88 -21 -37 -22 -52 -22 -231 0
-157 3 -198 16 -224 23 -46 44 -66 87 -89 35 -17 56 -19 186 -16 145 3 148 4
185 32 67 51 76 85 76 295 0 164 -2 189 -20 225 -21 44 -67 81 -121 96 -39 11
-219 12 -265 0z"/>
<path d="M21724 16200 l1 -1285 23 -108 c64 -304 188 -536 396 -742 127 -126
250 -214 399 -285 182 -87 395 -134 579 -128 l96 3 31 -92 c150 -456 509 -788
938 -869 114 -21 325 -14 428 14 155 43 276 101 405 196 63 46 84 66 820 786
1669 1633 1740 1701 1754 1693 8 -4 86 -78 173 -163 87 -85 311 -303 498 -485
187 -181 405 -393 485 -470 80 -78 372 -362 650 -631 278 -269 568 -550 645
-625 247 -240 316 -304 343 -316 15 -7 54 -12 88 -13 78 0 141 37 173 102 l21
44 0 980 c0 940 -1 982 -20 1061 -32 135 -110 285 -224 433 -61 80 -876 902
-1001 1009 -241 209 -468 303 -730 303 -139 -1 -226 -17 -357 -67 -190 -73
-317 -168 -597 -441 -138 -134 -158 -150 -173 -139 -10 6 -96 88 -191 181
-247 242 -336 313 -493 393 -370 188 -725 131 -1094 -173 -76 -63 -169 -154
-1420 -1387 -685 -675 -783 -769 -800 -769 -7 0 -10 509 -10 1534 0 843 -3
1561 -6 1595 -4 33 -11 61 -15 61 -5 0 -10 -37 -11 -82 0 -46 -3 -68 -5 -50
l-4 32 -159 0 c-117 0 -160 3 -163 13 -3 6 -7 -8 -8 -33 -2 -31 -5 -19 -9 40
-3 47 -7 -671 -8 -1594 l-2 -1679 -107 6 c-431 24 -796 336 -914 782 l-24 90
-5 1232 c-3 677 -8 1234 -11 1238 -4 3 -10 -31 -15 -77 -4 -46 -9 -75 -12 -65
-3 15 -19 17 -163 17 -144 0 -159 -2 -161 -17 0 -10 -4 2 -8 27 l-7 45 -4 -45
c-1 -25 -6 11 -9 80 -4 69 -6 -453 -6 -1160z m4836 40 c108 -25 232 -91 335
-180 28 -24 130 -120 227 -215 l177 -172 -182 -179 c-100 -99 -351 -343 -557
-544 -206 -201 -474 -462 -595 -580 -218 -214 -891 -870 -1055 -1029 -106
-103 -187 -162 -282 -205 -92 -42 -156 -56 -265 -56 -296 0 -574 214 -714 548
-17 41 -33 89 -35 106 -5 30 -2 33 73 74 114 63 203 138 438 370 116 115 527
521 915 903 388 382 768 757 845 833 162 160 242 224 340 271 122 60 231 78
335 55z m2319 -53 c168 -59 196 -83 699 -582 488 -484 576 -584 649 -732 l38
-78 3 -718 c1 -440 -1 -718 -7 -715 -8 3 -517 493 -1056 1017 -88 85 -225 218
-305 296 -80 77 -224 217 -320 310 -96 94 -296 287 -443 430 l-268 259 173
169 c241 235 333 302 484 350 73 24 91 26 189 23 65 -2 110 -10 164 -29z"/>
<path d="M4975 16016 c-40 -18 -85 -63 -101 -103 -12 -27 -14 -294 -14 -1560
0 -1471 1 -1530 19 -1569 40 -88 124 -119 301 -112 120 5 158 21 208 86 l27
35 3 624 2 623 372 -2 371 -3 144 -280 c79 -154 225 -440 325 -635 99 -195
193 -368 207 -383 51 -57 73 -62 236 -62 167 0 187 6 243 69 37 42 56 105 47
155 -4 20 -146 303 -316 630 -170 326 -308 598 -307 603 2 5 35 22 74 38 241
96 409 272 483 505 42 130 55 248 48 428 -10 286 -83 474 -244 628 -152 146
-339 224 -664 276 -144 22 -1416 31 -1464 9z m1256 -487 c337 -34 486 -135
529 -356 19 -96 9 -284 -20 -357 -41 -108 -135 -188 -270 -230 -127 -40 -254
-50 -665 -50 l-380 -1 -3 503 -2 502 354 0 c195 0 400 -5 457 -11z"/>
<path d="M18095 16016 c-40 -17 -84 -63 -101 -103 -19 -44 -19 -233 0 -276 19
-43 61 -86 102 -103 18 -8 65 -14 104 -14 l70 0 0 -1352 c0 -1308 1 -1354 19
-1395 12 -26 35 -52 62 -70 41 -27 46 -28 178 -28 157 0 184 9 229 77 l27 42
3 1535 c2 1072 0 1547 -8 1573 -13 44 -52 93 -91 113 -39 21 -548 21 -594 1z"/>
<path d="M8675 15229 c-175 -24 -369 -97 -506 -190 -134 -90 -257 -242 -314
-388 -52 -131 -23 -241 76 -291 29 -15 68 -22 148 -27 99 -5 113 -4 155 16 56
27 80 60 107 143 27 84 59 136 111 184 84 78 186 112 358 121 269 14 474 -81
525 -243 21 -66 15 -146 -13 -183 -46 -62 -72 -69 -407 -121 -481 -74 -714
-144 -908 -274 -208 -138 -310 -339 -294 -581 8 -117 28 -191 78 -295 34 -70
58 -101 133 -175 79 -79 105 -98 196 -143 174 -85 235 -97 495 -96 207 0 226
2 318 27 152 42 308 129 396 221 19 20 38 36 42 36 3 0 9 -25 11 -55 6 -68 45
-129 103 -159 55 -29 203 -35 273 -11 58 19 103 64 122 121 13 38 12 47 -12
289 -6 64 -12 358 -13 710 -1 524 -3 611 -18 689 -39 200 -104 335 -216 447
-108 108 -238 171 -431 210 -112 23 -407 33 -515 18z m705 -1333 c0 -1 -5 -60
-10 -129 -33 -409 -222 -620 -585 -656 -302 -30 -489 78 -511 297 -7 67 12
142 48 188 67 85 241 151 563 214 474 93 495 96 495 86z"/>
<path d="M11068 15209 c-381 -67 -645 -263 -714 -530 -21 -81 -21 -232 0 -322
59 -254 268 -424 631 -515 44 -11 186 -42 315 -67 265 -53 337 -73 430 -120
115 -58 170 -136 170 -238 0 -174 -204 -287 -518 -287 -198 0 -314 40 -416
142 -55 56 -126 171 -126 204 0 26 -64 97 -103 115 -54 24 -86 24 -198 -1
-103 -23 -133 -36 -171 -77 -64 -67 -65 -145 -4 -269 130 -267 357 -445 676
-531 80 -22 123 -26 278 -30 293 -8 467 23 667 121 227 112 371 280 421 491
25 108 16 296 -19 395 -61 171 -186 295 -393 391 -122 57 -253 93 -579 159
-354 72 -432 97 -498 159 -42 38 -60 79 -61 136 -1 65 25 110 88 152 121 82
385 115 565 71 124 -30 237 -108 288 -196 91 -163 138 -185 314 -146 151 34
209 91 209 206 0 60 -20 110 -78 195 -142 209 -350 340 -625 394 -133 26 -397
25 -549 -2z"/>
<path d="M13745 15216 c-432 -71 -750 -324 -909 -724 -59 -147 -86 -282 -93
-463 -22 -578 203 -1013 634 -1228 172 -85 345 -121 588 -121 176 0 287 15
420 55 247 75 463 240 589 450 29 46 36 69 36 109 0 65 -32 130 -79 161 -41
27 -176 65 -231 65 -62 0 -119 -38 -181 -120 -70 -93 -108 -129 -182 -173 -94
-57 -199 -81 -352 -82 -155 0 -207 11 -334 72 -130 62 -220 151 -284 284 -46
93 -86 242 -73 274 5 13 114 15 840 15 506 0 845 4 860 10 14 5 43 25 64 45
54 48 67 98 58 228 -41 592 -368 1009 -886 1128 -111 26 -371 34 -485 15z
m370 -461 c146 -31 290 -127 365 -246 37 -56 90 -200 90 -241 l0 -28 -629 0
c-394 0 -632 4 -636 10 -10 16 24 129 60 200 81 161 233 271 426 309 71 14
248 12 324 -4z"/>
<path d="M16462 15220 c-664 -94 -1084 -665 -1023 -1391 37 -445 213 -769 527
-971 119 -76 281 -136 442 -163 160 -27 459 -17 600 20 223 58 393 154 534
302 74 78 155 203 163 252 10 61 -11 120 -59 167 -36 34 -56 44 -129 62 -48
12 -103 22 -125 22 -63 0 -122 -37 -167 -105 -85 -129 -201 -211 -355 -252
-90 -24 -301 -24 -390 1 -188 51 -328 161 -415 328 -39 73 -75 199 -75 260 l0
38 840 0 c805 0 842 1 878 19 42 22 63 43 86 88 37 73 8 369 -54 554 -135 403
-424 664 -835 754 -83 19 -354 28 -443 15z m408 -480 c155 -54 268 -149 333
-282 35 -71 70 -193 60 -210 -2 -5 -287 -8 -634 -8 l-629 0 0 23 c0 40 30 129
68 202 73 140 225 252 394 290 99 23 324 14 408 -15z"/>
</g>
</svg>
